{"title":"Mr.Bean.Animated.Series.S02E26.Taxi.Bean.WEBRip.x264-orangebirds","uid":12487340,"size":52463649,"categoryP":"video","categoryS":"tv_shows","magnet":"?xt=urn:btih:514be3d1762cc3249f7310cad08b7d0920b0e03b&amp;dn=Mr.Bean.Animated.Series.S02E26.Taxi.Bean.WEBRip.x264-orangebirds&amp;tr=udp%3A%2F%2Ftracker.leechers-paradise.org%3A6969&amp;tr=udp%3A%2F%2Fzer0day.ch%3A1337&amp;tr=udp%3A%2F%2Fopen.demonii.com%3A1337&amp;tr=udp%3A%2F%2Ftracker.coppersurfer.tk%3A6969&amp;tr=udp%3A%2F%2Fexodus.desync.com%3A6969","seeders":0,"leechers":1,"uploader":"orangebirds","files":1,"time":1443120476,"description":"Mr.Bean.Animated.Series.S02E26.Taxi.Bean.WEBRip.x264-orangebirds\r\n\r\nSource : ITVPlayer\r\n\r\nVideo untouched from the source\r\nAudio in AAC 2.0, also untouched\r\n\r\nPlease help me seed, and don't forget to leave a comment!\r\n\r\nGeneral\r\nComplete name                            : Mr.Bean.Animated.Series.S02E26.Taxi.Bean.WEBRip.x264-orangebirds.mp4\r\nFormat                                   : MPEG-4\r\nFormat profile                           : Base Media\r\nCodec ID                                 : isom\r\nFile size                                : 50.0 MiB\r\nDuration                                 : 10mn 59s\r\nOverall bit rate mode                    : Variable\r\nOverall bit rate                         : 636 Kbps\r\nEncoded date                             : UTC 2015-09-24 16:31:56\r\nTagged date                              : UTC 2015-09-24 16:31:56\r\n\r\nVideo\r\nID                                       : 1\r\nFormat                                   : AVC\r\nFormat/Info                              : Advanced Video Codec\r\nFormat profile                           :   \r\nFormat settings, CABAC                   : Yes\r\nFormat settings, ReFrames                : 6 frames\r\nCodec ID                                 : avc1\r\nCodec ID/Info                            : Advanced Video Coding\r\nDuration                                 : 10mn 59s\r\nBit rate                                 : 536 Kbps\r\nNominal bit rate                         : 704 Kbps\r\nMaximum bit rate                         : 1 046 Kbps\r\nWidth                                    : 512 pixels\r\nHeight                                   : 288 pixels\r\nDisplay aspect ratio                     : 16:9\r\nFrame rate mode                          : Constant\r\nFrame rate                               : 25.000 fps\r\nColor space                              : YUV\r\nChroma subsampling                       : 4:2:0\r\nBit depth                                : 8 bits\r\nScan type                                : Progressive\r\nBits/(Pixel*Frame)                       : 0.145\r\nStream size                              : 42.2 MiB (84%)\r\nTitle                                    :   \r\nWriting library                          : x264 core 129\r\nEncoding settings                        : cabac=1 / ref=6 / deblock=1:-1:-1 / analyse=0x3:0x113 / me=umh / subme=8 / psy=1 / psy_rd=0.60:1.00 / mixed_ref=1 / me_range=16 / chroma_me=1 / trellis=2 / 8x8dct=1 / cqm=0 / deadzone=21,11 / fast_pskip=1 / chroma_qp_offset=-4 / threads=8 / lookahead_threads=1 / sliced_threads=0 / nr=0 / decimate=1 / interlaced=0 / bluray_compat=0 / constrained_intra=0 / bframes=3 / b_pyramid=0 / b_adapt=2 / b_bias=0 / direct=3 / weightb=1 / open_gop=0 / weightp=2 / keyint=150 / keyint_min=15 / scenecut=0 / intra_refresh=0 / rc_lookahead=60 / rc=cbr / mbtree=1 / bitrate=704 / ratetol=1.0 / qcomp=0.60 / qpmin=0 / qpmax=69 / qpstep=4 / vbv_maxrate=704 / vbv_bufsize=528 / nal_hrd=none / ip_ratio=1.40 / aq=1:1.40\r\nEncoded date                             : UTC 2015-09-24 16:31:56\r\nTagged date                              : UTC 2015-09-24 16:32:02\r\n\r\nAudio\r\nID                                       : 2\r\nFormat                                   : AAC\r\nFormat/Info                              : Advanced Audio Codec\r\nFormat profile                           : LC\r\nCodec ID                                 : 40\r\nDuration                                 : 10mn 59s\r\nBit rate mode                            : Variable\r\nBit rate                                 : 96.0 Kbps\r\nMaximum bit rate                         : 98.3 Kbps\r\nChannel(s)                               : 2 channels\r\nChannel positions                        : Front: L R\r\nSampling rate                            : 48.0 KHz\r\nCompression mode                         : Lossy\r\nStream size                              : 7.56 MiB (15%)\r\nTitle                                    :   \r\nEncoded date                             : UTC 2015-09-24 16:32:00\r\nTagged date                              : UTC 2015-09-24 16:32:02","torrent":{"xt":"urn:btih:514be3d1762cc3249f7310cad08b7d0920b0e03b","amp;dn":"Mr.Bean.Animated.Series.S02E26.Taxi.Bean.WEBRip.x264-orangebirds","amp;tr":["udp%3A%2F%2Ftracker.leechers-paradise.org%3A6969","udp%3A%2F%2Fzer0day.ch%3A1337","udp%3A%2F%2Fopen.demonii.com%3A1337","udp%3A%2F%2Ftracker.coppersurfer.tk%3A6969","udp%3A%2F%2Fexodus.desync.com%3A6969"],"infoHash":"514be3d1762cc3249f7310cad08b7d0920b0e03b","infoHashBuffer":{"type":"Buffer","data":[81,75,227,209,118,44,195,36,159,115,16,202,208,139,125,9,32,176,224,59]},"announce":[],"urlList":[]}}